<?xml version="1.0" encoding="UTF-8"?>
<svg version="1.1" xmlns="http://www.w3.org/2000/svg" width="1200" height="1800">
<path d="M0 0 C7.75948954 -0.10133362 15.51880876 -0.17143783 23.27880859 -0.21972656 C25.91917294 -0.23985475 28.55949265 -0.26715987 31.19970703 -0.30175781 C34.99262501 -0.3502205 38.78495416 -0.3729572 42.578125 -0.390625 C44.35174408 -0.42159271 44.35174408 -0.42159271 46.16119385 -0.45318604 C47.26203308 -0.45348816 48.36287231 -0.45379028 49.49707031 -0.45410156 C50.94935028 -0.46742523 50.94935028 -0.46742523 52.43096924 -0.48101807 C55.76618452 0.14345823 56.94787903 1.34550219 59 4 C59.390625 7.234375 59.390625 7.234375 59.25 10.75 C59.21390625 11.92046875 59.1778125 13.0909375 59.140625 14.296875 C59.09421875 15.18890625 59.0478125 16.0809375 59 17 C60.21236328 16.94779297 60.21236328 16.94779297 61.44921875 16.89453125 C62.51785156 16.86746094 63.58648438 16.84039062 64.6875 16.8125 C65.74324219 16.77769531 66.79898437 16.74289062 67.88671875 16.70703125 C71.62625007 17.05893194 73.16243401 17.5156201 76 20 C76.80267801 23.05824223 76.74479959 26.09033967 76.7421875 29.23828125 C76.76917473 30.64367157 76.76917473 30.64367157 76.79670715 32.07745361 C76.84819184 35.15604501 76.86273978 38.23352129 76.875 41.3125 C76.89961343 43.43417748 76.92542032 45.55584143 76.95239258 47.67749023 C77.09589036 61.30706862 77.0009331 74.93595381 76.6875 88.5625 C76.67080261 89.3627359 76.65410522 90.1629718 76.63690186 90.98745728 C76.5857538 93.24343711 76.52048472 95.49848175 76.44921875 97.75390625 C76.39254028 99.64604858 76.39254028 99.64604858 76.3347168 101.57641602 C75.99590046 105.04193131 75.41384044 107.81774258 74 111 C65.08695824 113.97101392 49.05473932 115.01824644 40 112 C40.01160156 113.14339844 40.02320313 114.28679687 40.03515625 115.46484375 C40.04453288 116.95572754 40.05363321 118.44661309 40.0625 119.9375 C40.07087891 120.69224609 40.07925781 121.44699219 40.08789062 122.22460938 C40.09652441 124.14994313 40.05224333 126.07535581 40 128 C37.94077598 130.05922402 33.78291876 129.41427579 30.9375 129.5625 C29.79958008 129.62727539 29.79958008 129.62727539 28.63867188 129.69335938 C26.75934562 129.79973633 24.87969756 129.90039934 23 130 C23 131.79201155 23.02596764 133.58475282 23.10546875 135.375 C23.13253906 136.24125 23.15960937 137.1075 23.1875 138 C23.23970703 139.299375 23.23970703 139.299375 23.29296875 140.625 C23 143 23 143 21.92382812 144.63012695 C18.98698231 146.72132516 16.48977983 146.33660955 12.92578125 146.29296875 C12.2419487 146.28872391 11.55811615 146.28447906 10.8535614 146.28010559 C8.67280439 146.26333353 6.49297691 146.22568657 4.3125 146.1875 C2.83269565 146.17245114 1.3528768 146.15876308 -0.12695312 146.14648438 C-3.75160336 146.11343569 -7.37571094 146.06166446 -11 146 C-10.98839844 147.14339844 -10.97679687 148.28679687 -10.96484375 149.46484375 C-10.95546712 150.95572754 -10.94636679 152.44661309 -10.9375 153.9375 C-10.92912109 154.69224609 -10.92074219 155.44699219 -10.91210938 156.22460938 C-10.90347559 158.14994313 -10.94775667 160.07535581 -11 162 C-13.11925604 164.11925604 -17.6196093 163.41831017 -20.5625 163.5625 C-21.36880859 163.60568359 -22.17511719 163.64886719 -23.00585938 163.69335938 C-25.00368805 163.79975262 -27.0018207 163.90040888 -29 164 C-28.67 164.99 -28.34 165.98 -28 167 C-27.88119646 168.8096818 -27.8248035 170.62396447 -27.8125 172.4375 C-27.79832031 173.38496094 -27.78414062 174.33242188 -27.76953125 175.30859375 C-28.01197236 178.13981281 -28.27726575 179.73598369 -30 182 C-32.2421875 182.609375 -32.2421875 182.609375 -34.875 182.75 C-35.73867188 182.80671875 -36.60234375 182.8634375 -37.4921875 182.921875 C-39.6605627 182.98942563 -41.83057286 183 -44 183 C-44.07347656 184.35544922 -44.07347656 184.35544922 -44.1484375 185.73828125 C-44.26058594 187.50751953 -44.26058594 187.50751953 -44.375 189.3125 C-44.44460938 190.48425781 -44.51421875 191.65601563 -44.5859375 192.86328125 C-45 196 -45 196 -47 199 C-50.15234375 199.328125 -50.15234375 199.328125 -53.9375 199.25 C-55.18402344 199.23453125 -56.43054688 199.2190625 -57.71484375 199.203125 C-61 199 -61 199 -64 198 C-64.06058594 199.28777344 -64.12117187 200.57554687 -64.18359375 201.90234375 C-64.26798247 203.58074159 -64.3526313 205.25912636 -64.4375 206.9375 C-64.47681641 207.78763672 -64.51613281 208.63777344 -64.55664062 209.51367188 C-64.61948242 210.72700195 -64.61948242 210.72700195 -64.68359375 211.96484375 C-64.73858032 213.08814087 -64.73858032 213.08814087 -64.79467773 214.23413086 C-65 216 -65 216 -66 217 C-67.9562593 217.09927286 -69.91622909 217.12969729 -71.875 217.125 C-72.94492187 217.12757813 -74.01484375 217.13015625 -75.1171875 217.1328125 C-78 217 -78 217 -81 216 C-80.98839844 216.71800781 -80.97679687 217.43601562 -80.96484375 218.17578125 C-80.90369194 225.19076764 -81.0621174 232.17985967 -81.375 239.1875 C-81.4212854 240.44397339 -81.4212854 240.44397339 -81.46850586 241.72583008 C-81.76660936 247.76660936 -81.76660936 247.76660936 -84 250 C-86.3125 250.30078125 -86.3125 250.30078125 -89 250.3125 C-89.886875 250.32925781 -90.77375 250.34601563 -91.6875 250.36328125 C-92.450625 250.24339844 -93.21375 250.12351562 -94 250 C-94.66 249.01 -95.32 248.02 -96 247 C-97.51062693 248.51062693 -97.19532457 249.89391289 -97.28125 252 C-97.31863281 252.804375 -97.35601562 253.60875 -97.39453125 254.4375 C-97.42933594 255.283125 -97.46414063 256.12875 -97.5 257 C-97.56860509 258.66684971 -97.64130223 260.33353774 -97.71875 262 C-97.74904297 262.7425 -97.77933594 263.485 -97.81054688 264.25 C-98 266 -98 266 -99 267 C-101.69654854 267.07319621 -104.36691458 267.09242537 -107.0625 267.0625 C-107.82111328 267.05798828 -108.57972656 267.05347656 -109.36132812 267.04882812 C-111.24091871 267.0370068 -113.12046899 267.01907078 -115 267 C-114.97643433 268.47593628 -114.97643433 268.47593628 -114.95239258 269.98168945 C-114.89809022 273.63248508 -114.86364915 277.28324501 -114.83520508 280.93432617 C-114.82011906 282.51446536 -114.7996475 284.09456269 -114.77368164 285.67456055 C-114.73728874 287.94590585 -114.72027238 290.21669759 -114.70703125 292.48828125 C-114.69154739 293.19463211 -114.67606354 293.90098297 -114.66011047 294.6287384 C-114.65916693 297.37891657 -114.73617029 299.51686449 -116.0690918 301.95776367 C-119.08999687 303.58834197 -121.79484036 303.28087595 -125.1875 303.1875 C-126.45980469 303.16042969 -127.73210937 303.13335938 -129.04296875 303.10546875 C-130.50669922 303.05326172 -130.50669922 303.05326172 -132 303 C-132.00808685 303.56740906 -132.01617371 304.13481812 -132.02450562 304.71942139 C-132.11055457 310.62437375 -132.21005838 316.52899055 -132.31738281 322.43359375 C-132.35566886 324.63731247 -132.39052237 326.84109361 -132.421875 329.04492188 C-132.4675333 332.21246652 -132.52552702 335.37958162 -132.5859375 338.546875 C-132.59748871 339.53242371 -132.60903992 340.51797241 -132.62094116 341.53338623 C-132.6507457 342.91436493 -132.6507457 342.91436493 -132.68115234 344.32324219 C-132.69447601 345.1315448 -132.70779968 345.93984741 -132.7215271 346.77264404 C-133.03211186 349.25684563 -133.67770941 350.88183735 -135 353 C-138.16401881 354.58200941 -141.53874837 354.06168567 -145 354 C-145.99 354 -146.98 354 -148 354 C-148.01395309 354.63227005 -148.02790619 355.2645401 -148.0422821 355.91596985 C-148.19207777 362.48658099 -148.37596529 369.05560464 -148.57983398 375.62475586 C-148.65144748 378.07764004 -148.71431401 380.53079564 -148.76831055 382.98413086 C-148.84736568 386.50742576 -148.95766823 390.02855237 -149.07421875 393.55078125 C-149.09215988 394.65086014 -149.11010101 395.75093903 -149.12858582 396.88435364 C-149.23727262 399.68163492 -149.37559663 402.27127222 -150 405 C-153.29758456 408.03086816 -155.91832641 408.36326694 -160.3125 408.1875 C-161.19550781 408.16042969 -162.07851563 408.13335938 -162.98828125 408.10546875 C-163.98408203 408.05326172 -163.98408203 408.05326172 -165 408 C-165.33 406.68 -165.66 405.36 -166 404 C-166.66 404.33 -167.32 404.66 -168 405 C-168.33 461.76 -168.66 518.52 -169 577 C-167.68 576.34 -166.36 575.68 -165 575 C-161.8359375 574.734375 -161.8359375 574.734375 -158.375 574.75 C-157.22773438 574.74484375 -156.08046875 574.7396875 -154.8984375 574.734375 C-152 575 -152 575 -150 577 C-149.75310694 579.64615357 -149.62904643 582.19486623 -149.58935547 584.84619141 C-149.56955627 585.65602982 -149.54975708 586.46586823 -149.52935791 587.30024719 C-149.46605413 589.98389898 -149.41658546 592.66762166 -149.3671875 595.3515625 C-149.32605468 597.20960355 -149.2840619 599.06762574 -149.24124146 600.92562866 C-149.13073482 605.82125607 -149.03194566 610.71705326 -148.93554688 615.61297607 C-148.83516398 620.60672151 -148.72376738 625.60021969 -148.61328125 630.59375 C-148.39803864 640.39562223 -148.19516676 650.19770893 -148 660 C-147.33613281 659.89300781 -146.67226563 659.78601563 -145.98828125 659.67578125 C-142.05906526 659.14232565 -138.79974713 658.80904683 -134.91918945 659.7355957 C-131.60162455 663.6499087 -132.2748998 668.2765469 -132.29296875 673.23046875 C-132.27028679 674.88880486 -132.27028679 674.88880486 -132.24714661 676.5806427 C-132.20411227 680.11646673 -132.19541602 683.65143966 -132.1875 687.1875 C-132.16436808 689.58270517 -132.13900549 691.97788992 -132.11132812 694.37304688 C-132.0483204 700.24870584 -132.01351105 706.12403009 -132 712 C-128.98835784 713.26531863 -128.98835784 713.26531863 -125.6875 712.4375 C-121.71865207 711.96661974 -119.68354901 712.63360594 -116 714 C-115.12474592 725.51743583 -114.87362741 736.95231704 -114.9375 748.5 C-114.94253439 750.11327983 -114.94709381 751.72656122 -114.95117188 753.33984375 C-114.9620024 757.22660214 -114.9791554 761.11328295 -115 765 C-113.83633911 764.51213013 -113.83633911 764.51213013 -112.64916992 764.0144043 C-109.97160939 762.98912884 -108.15345293 762.75944315 -105.3125 762.8125 C-104.54550781 762.81894531 -103.77851563 762.82539062 -102.98828125 762.83203125 C-101 763 -101 763 -99 764 C-97.81998451 767.54004646 -97.77087654 770.8227256 -97.68359375 774.51171875 C-97.66281265 775.23994339 -97.64203156 775.96816803 -97.62062073 776.71846008 C-97.55531254 779.04137875 -97.49632763 781.36440906 -97.4375 783.6875 C-97.39429695 785.26368335 -97.35068208 786.83985548 -97.30664062 788.41601562 C-97.1996504 792.27722975 -97.09833039 796.13855603 -97 800 C-96.01 799.67 -95.02 799.34 -94 799 C-92.31454276 798.90712229 -90.625507 798.87002796 -88.9375 798.875 C-88.05964844 798.87242187 -87.18179688 798.86984375 -86.27734375 798.8671875 C-84 799 -84 799 -82 800 C-81.36077995 811.34615583 -80.83061171 822.63216352 -81 834 C-80.01 833.67 -79.02 833.34 -78 833 C-73.66328697 832.86498403 -69.33988266 832.95703086 -65 833 C-64.67 839.27 -64.34 845.54 -64 852 C-63.01 851.34 -62.02 850.68 -61 850 C-57.71484375 849.69921875 -57.71484375 849.69921875 -53.9375 849.6875 C-52.68839844 849.67074219 -51.43929687 849.65398438 -50.15234375 849.63671875 C-49.11207031 849.75660156 -48.07179688 849.87648438 -47 850 C-44.59880941 853.60178588 -44.56228678 856.50866369 -44.375 860.6875 C-44.33632813 861.38939453 -44.29765625 862.09128906 -44.2578125 862.81445312 C-44.1637666 864.54254655 -44.0808032 866.27123675 -44 868 C-42.68 868 -41.36 868 -40 868 C-38.24837531 868.1486227 -36.49825963 868.31597267 -34.75 868.5 C-33.85796875 868.5928125 -32.9659375 868.685625 -32.046875 868.78125 C-31.37140625 868.8534375 -30.6959375 868.925625 -30 869 C-28.93276039 872.46222615 -28.89826514 875.64039266 -28.9375 879.25 C-28.94652344 880.32765625 -28.95554687 881.4053125 -28.96484375 882.515625 C-28.98224609 883.74539063 -28.98224609 883.74539063 -29 885 C-27.86820313 884.96519531 -26.73640625 884.93039062 -25.5703125 884.89453125 C-24.08855647 884.86639664 -22.60678444 884.83909613 -21.125 884.8125 C-20.37863281 884.78736328 -19.63226563 884.76222656 -18.86328125 884.73632812 C-16.6953125 884.70703125 -16.6953125 884.70703125 -13 885 C-10.69430661 888.45854008 -10.70238381 889.97937508 -10.6875 894.0625 C-10.67074219 895.12597656 -10.65398437 896.18945312 -10.63671875 897.28515625 C-10.81654297 898.62900391 -10.81654297 898.62900391 -11 900 C-11.99 900.66 -12.98 901.32 -14 902 C-9.53665816 903.72293135 -5.89798769 904.22240791 -1.125 904.125 C0.60363281 904.09792969 0.60363281 904.09792969 2.3671875 904.0703125 C3.23601562 904.04710937 4.10484375 904.02390625 5 904 C6.44207941 906.88415883 6.09394887 909.41721528 6.0625 912.625 C6.05347656 913.81351563 6.04445313 915.00203125 6.03515625 916.2265625 C6.02355469 917.14179687 6.01195312 918.05703125 6 919 C9.95489135 920.18371458 13.57108755 919.99356814 17.66015625 919.83984375 C20 920 20 920 23 922 C23.22137393 924.62697064 23.28162025 927.00893964 23.1875 929.625 C23.17396484 930.33140625 23.16042969 931.0378125 23.14648438 931.765625 C23.1111104 933.51074128 23.05730221 935.25546608 23 937 C24.14339844 936.98839844 25.28679687 936.97679687 26.46484375 936.96484375 C27.95572754 936.95546712 29.44661309 936.94636679 30.9375 936.9375 C31.69224609 936.92912109 32.44699219 936.92074219 33.22460938 936.91210938 C35.14994313 936.90347559 37.07535581 936.94775667 39 937 C40 938 40 938 40.09765625 941.59765625 C40.0909822 943.08596867 40.07902183 944.57426432 40.0625 946.0625 C40.05573242 947.20041992 40.05573242 947.20041992 40.04882812 948.36132812 C40.0370068 950.24091871 40.01907078 952.12046899 40 954 C41.98567708 953.96744792 43.97135417 953.93489583 45.95703125 953.90234375 C48 954 48 954 51 955 C50.99777939 954.18202942 50.99555878 953.36405884 50.99327087 952.52130127 C50.9732307 944.81128786 50.95800683 937.10128709 50.94818783 929.39125443 C50.94297009 925.42749164 50.93589255 921.46375039 50.92456055 917.5 C50.91369229 913.67450499 50.9077148 909.84903068 50.90512276 906.02352142 C50.90327562 904.56429468 50.89966864 903.10506906 50.89426994 901.64585114 C50.88700726 899.60144098 50.88601127 897.5571163 50.88647461 895.51269531 C50.884254 894.34909485 50.88203339 893.18549438 50.87974548 891.9866333 C50.98205099 889.44578036 51.11327607 887.3756625 52 885 C54.47378124 883.76310938 56.17915317 883.86689913 58.9375 883.875 C60.25041016 883.87113281 60.25041016 883.87113281 61.58984375 883.8671875 C64 884 64 884 67 885 C67.03738281 883.95199219 67.07476563 882.90398438 67.11328125 881.82421875 C67.17894515 880.44527695 67.24539235 879.06637229 67.3125 877.6875 C67.33505859 876.99720703 67.35761719 876.30691406 67.38085938 875.59570312 C67.64863226 870.55670424 67.64863226 870.55670424 69.07617188 868.29492188 C71.98825069 866.33481197 74.90754691 866.63044814 78.29296875 866.70703125 C78.99899734 866.71127609 79.70502594 866.71552094 80.43244934 866.71989441 C82.68452303 866.73666966 84.93569742 866.77431757 87.1875 866.8125 C88.71548185 866.82754843 90.24347776 866.84123656 91.77148438 866.85351562 C95.51466872 866.88656911 99.25718196 866.93834168 103 867 C102.97679687 866.02417969 102.95359375 865.04835938 102.9296875 864.04296875 C102.91164063 862.77066406 102.89359375 861.49835937 102.875 860.1875 C102.84019531 858.29064453 102.84019531 858.29064453 102.8046875 856.35546875 C103 853 103 853 105 850 C107.40444946 849.63923645 107.40444946 849.63923645 110.45947266 849.65942383 C111.60050446 849.65965042 112.74153625 849.65987701 113.91714478 849.66011047 C115.77186905 849.68333626 115.77186905 849.68333626 117.6640625 849.70703125 C118.92640717 849.71127609 120.18875183 849.71552094 121.48934937 849.71989441 C124.84661351 849.73386863 128.20326932 849.76082698 131.56036377 849.79400635 C134.98550148 849.82468648 138.41070201 849.8383953 141.8359375 849.85351562 C148.5574605 849.88665359 155.27869511 849.93690461 162 850 C163.97168893 853.61590012 164.21502268 856.10895658 164.125 860.25 C164.10695313 861.32765625 164.08890625 862.4053125 164.0703125 863.515625 C164.03550781 864.74539063 164.03550781 864.74539063 164 866 C164.82201904 866.0501123 165.64403809 866.10022461 166.4909668 866.15185547 C170.22373946 866.38428085 173.95556526 866.62950208 177.6875 866.875 C179.62786133 866.99294922 179.62786133 866.99294922 181.60742188 867.11328125 C182.85458984 867.19707031 184.10175781 867.28085938 185.38671875 867.3671875 C186.53358154 867.44050293 187.68044434 867.51381836 188.86206055 867.58935547 C191.92456118 867.99012775 194.24908713 868.61063744 197 870 C198.41634833 872.83269666 198.3463005 875.47466438 198.5625 878.625 C198.64628906 879.81351563 198.73007812 881.00203125 198.81640625 882.2265625 C198.87699219 883.14179687 198.93757813 884.05703125 199 885 C199.98742187 884.96519531 200.97484375 884.93039062 201.9921875 884.89453125 C203.91417969 884.85392578 203.91417969 884.85392578 205.875 884.8125 C207.15117188 884.77769531 208.42734375 884.74289062 209.7421875 884.70703125 C210.81726563 884.80371094 211.89234375 884.90039062 213 885 C215.44257782 888.66386673 215.17898152 890.27325056 215.0625 894.625 C214.91025119 903.11815752 215.41942052 911.52976009 216 920 C216.90363281 919.98839844 217.80726563 919.97679687 218.73828125 919.96484375 C220.50751953 919.95130859 220.50751953 919.95130859 222.3125 919.9375 C223.48425781 919.92589844 224.65601563 919.91429687 225.86328125 919.90234375 C229 920 229 920 232 921 C232.33 926.28 232.66 931.56 233 937 C237.95 937 242.9 937 248 937 C249.11853833 939.23707667 249.17919083 940.61376396 249.28125 943.09765625 C249.31863281 943.89880859 249.35601563 944.69996094 249.39453125 945.52539062 C249.46500585 947.22069639 249.53531761 948.91600894 249.60546875 950.61132812 C249.39792962 954.6309064 249.39792962 954.6309064 251 958 C251.66 956.68 252.32 955.36 253 954 C254.58294782 953.94562393 256.16644256 953.90703729 257.75 953.875 C258.63171875 953.85179687 259.5134375 953.82859375 260.421875 953.8046875 C263.14854489 954.0112534 264.72251979 954.50928568 267 956 C268.03798553 958.94095901 267.99430267 961.43204767 267.953125 964.5546875 C267.93757788 969.41316127 268.45181498 974.17745342 269 979 C269.09539063 979.87011719 269.19078125 980.74023438 269.2890625 981.63671875 C269.52219655 983.75823857 269.76055297 985.87918343 270 988 C270.75925781 987.98839844 271.51851562 987.97679687 272.30078125 987.96484375 C273.79158203 987.95130859 273.79158203 987.95130859 275.3125 987.9375 C276.29863281 987.92589844 277.28476562 987.91429687 278.30078125 987.90234375 C281 988 281 988 284 989 C285.65285959 992.30571917 285.1005118 995.995378 285.0625 999.625 C285.0315625 1003.770625 285.0315625 1003.770625 285 1008 C290.61 1008 296.22 1008 302 1008 C303.52106634 1011.04213267 303.37429338 1014.28047572 303.5625 1017.625 C303.62727539 1018.68460938 303.62727539 1018.68460938 303.69335938 1019.765625 C303.79944751 1021.51018537 303.90022889 1023.25506697 304 1025 C304.91523437 1024.98839844 305.83046875 1024.97679687 306.7734375 1024.96484375 C308.55621094 1024.95130859 308.55621094 1024.95130859 310.375 1024.9375 C311.55835938 1024.92589844 312.74171875 1024.91429687 313.9609375 1024.90234375 C317 1025 317 1025 319 1026 C320.31662272 1029.49229631 320.1138397 1033.04454749 320.09765625 1036.734375 C320.09443359 1038.02988281 320.09121094 1039.32539062 320.08789062 1040.66015625 C320.07953598 1042.02343817 320.07107104 1043.38671942 320.0625 1044.75 C320.05748168 1046.12890465 320.05291935 1047.50781104 320.04882812 1048.88671875 C320.03704093 1052.25785659 320.02058635 1055.62890628 320 1059 C320.90347168 1058.75552124 320.90347168 1058.75552124 321.82519531 1058.50610352 C324.51643831 1057.87981852 326.98982693 1057.9046408 329.75 1057.9375 C330.73484375 1057.94652344 331.7196875 1057.95554687 332.734375 1057.96484375 C333.48203125 1057.97644531 334.2296875 1057.98804688 335 1058 C337.26849666 1061.65172633 337.3895951 1065.0127118 337.625 1069.25 C337.69976563 1070.51328125 337.77453125 1071.7765625 337.8515625 1073.078125 C337.90054688 1074.04234375 337.94953125 1075.0065625 338 1076 C338.66 1075.67 339.32 1075.34 340 1075 C342.01896864 1074.9037238 344.0412429 1074.87018175 346.0625 1074.875 C347.14660156 1074.87242188 348.23070312 1074.86984375 349.34765625 1074.8671875 C352 1075 352 1075 353 1076 C353.16003488 1078.66426685 353.25942889 1081.30560428 353.31640625 1083.97265625 C353.33718735 1084.77029892 353.35796844 1085.56794159 353.37937927 1086.38975525 C353.44496158 1088.94724611 353.50379967 1091.5048428 353.5625 1094.0625 C353.60567699 1095.79232882 353.64929101 1097.52214679 353.69335938 1099.25195312 C353.80065172 1103.5011926 353.90189426 1107.7505389 354 1112 C356.09518318 1112 358.1904528 1111.97452063 360.28515625 1111.9296875 C362.15494141 1111.90261719 362.15494141 1111.90261719 364.0625 1111.875 C365.31160156 1111.85179687 366.56070313 1111.82859375 367.84765625 1111.8046875 C371 1112 371 1112 373 1114 C373.25396729 1116.27037048 373.25396729 1116.27037048 373.25878906 1119.13647461 C373.26509338 1120.20776108 373.27139771 1121.27904755 373.27789307 1122.38279724 C373.27182037 1124.12497276 373.27182037 1124.12497276 373.265625 1125.90234375 C373.26849518 1127.68530602 373.26849518 1127.68530602 373.27142334 1129.50428772 C373.27278641 1132.02198498 373.26908154 1134.53968923 373.26074219 1137.05737305 C373.25005408 1140.91796633 373.26062884 1144.77809324 373.2734375 1148.63867188 C373.27211574 1151.0807302 373.26955301 1153.52278823 373.265625 1155.96484375 C373.27169769 1157.70398293 373.27169769 1157.70398293 373.27789307 1159.47825623 C373.27158875 1160.55269485 373.26528442 1161.62713348 373.25878906 1162.73413086 C373.25640228 1164.15404579 373.25640228 1164.15404579 373.25396729 1165.60264587 C373 1168 373 1168 371 1171 C368.1015625 1171.3984375 368.1015625 1171.3984375 364.625 1171.375 C363.48289062 1171.38273437 362.34078125 1171.39046875 361.1640625 1171.3984375 C358 1171 358 1171 354 1168 C353.67 1179.88 353.34 1191.76 353 1204 C347.72 1204 342.44 1204 337 1204 C337.020625 1206.248125 337.04125 1208.49625 337.0625 1210.8125 C337.125 1217.625 337.125 1217.625 336 1221 C317.11162119 1221.02332783 298.22324529 1221.0409786 279.33485508 1221.05181217 C270.56527285 1221.05697538 261.79569955 1221.06401854 253.02612305 1221.07543945 C245.38537097 1221.08538554 237.74462536 1221.09185325 230.10386699 1221.09408849 C226.05561615 1221.09539573 222.00738381 1221.09848238 217.95913887 1221.10573006 C214.15319131 1221.11248909 210.34726998 1221.1146172 206.54131699 1221.11310768 C205.14042328 1221.11338406 203.73952875 1221.11538988 202.33864021 1221.11920547 C200.43410492 1221.12414083 198.52955574 1221.122398 196.62501526 1221.12025452 C195.55665719 1221.12117631 194.48829912 1221.1220981 193.38756657 1221.12304783 C191 1221 191 1221 190 1220 C189.92728259 1217.64686445 189.91629132 1215.29166332 189.9375 1212.9375 C189.94652344 1211.64714844 189.95554687 1210.35679688 189.96484375 1209.02734375 C189.98224609 1207.52880859 189.98224609 1207.52880859 190 1206 C185.93565046 1205.0262264 182.15669205 1204.88470495 177.98291016 1204.90234375 C177.29313489 1204.90378136 176.60335962 1204.90521896 175.89268208 1204.90670013 C174.39487237 1204.9104621 172.89706709 1204.91654817 171.39927483 1204.92469788 C168.99750502 1204.93772541 166.59578335 1204.94466659 164.19398499 1204.95007324 C160.77322245 1204.95831636 157.35248109 1204.96899902 153.93173218 1204.98168945 C145.14070969 1205.01339414 136.34966872 1205.02604799 127.55859375 1205.03125 C126.6987343 1205.03179886 125.83887486 1205.03234772 124.95295906 1205.03291321 C106.29170445 1205.03941469 87.64774062 1204.72590853 69 1204 C67.49843126 1200.99686252 67.90718796 1198.20932478 67.9375 1194.875 C67.94652344 1193.59367187 67.95554687 1192.31234375 67.96484375 1190.9921875 C67.98224609 1189.51105469 67.98224609 1189.51105469 68 1188 C66.77876183 1188.00333092 66.77876183 1188.00333092 65.53285217 1188.00672913 C57.78274022 1188.02693763 50.03264142 1188.04207743 42.2825098 1188.05181217 C38.30006327 1188.05698544 34.31763888 1188.06397936 30.33520508 1188.07543945 C26.4772311 1188.08646931 22.61927815 1188.09231841 18.7612896 1188.09487724 C17.30443428 1188.09669592 15.84757984 1188.10024499 14.39073372 1188.10573006 C6.45232773 1188.13437339 -1.47685934 1188.02731619 -9.40844727 1187.68139648 C-10.50380877 1187.64825017 -10.50380877 1187.64825017 -11.62129879 1187.61443424 C-13.66725159 1187.50828552 -13.66725159 1187.50828552 -17 1187 C-19.35119399 1183.47320901 -19.21443452 1181.97120515 -19.125 1177.8125 C-19.10695313 1176.72582031 -19.08890625 1175.63914062 -19.0703125 1174.51953125 C-19.04710937 1173.68808594 -19.02390625 1172.85664062 -19 1172 C-20.05960937 1171.95101563 -21.11921875 1171.90203125 -22.2109375 1171.8515625 C-23.59898497 1171.77653291 -24.98700451 1171.70098515 -26.375 1171.625 C-27.07367188 1171.5940625 -27.77234375 1171.563125 -28.4921875 1171.53125 C-33.7734375 1171.2265625 -33.7734375 1171.2265625 -36 1169 C-36.24543141 1166.35212211 -36.37349386 1163.80096177 -36.4140625 1161.1484375 C-36.44311172 1159.98738998 -36.44311172 1159.98738998 -36.4727478 1158.80288696 C-36.5325983 1156.32703725 -36.57895011 1153.85114117 -36.625 1151.375 C-36.66317482 1149.69789623 -36.70222625 1148.02081216 -36.7421875 1146.34375 C-36.83830409 1142.22932647 -36.92231439 1138.11481114 -37 1134 C-37.90363281 1134.01160156 -38.80726563 1134.02320313 -39.73828125 1134.03515625 C-41.50751953 1134.04869141 -41.50751953 1134.04869141 -43.3125 1134.0625 C-44.48425781 1134.07410156 -45.65601563 1134.08570313 -46.86328125 1134.09765625 C-50 1134 -50 1134 -53 1133 C-53.06946382 1123.79459996 -53.12279271 1114.58928992 -53.15543652 1105.38368511 C-53.17110272 1101.10929301 -53.1923582 1096.83508002 -53.22631836 1092.56079102 C-53.25887809 1088.43702747 -53.27684582 1084.31343637 -53.28463173 1080.18955421 C-53.29018136 1078.61504208 -53.30101831 1077.04053955 -53.31719017 1075.46610069 C-53.33892005 1073.26324328 -53.34196888 1071.06110138 -53.34057617 1068.8581543 C-53.35056892 1066.97618599 -53.35056892 1066.97618599 -53.36076355 1065.05619812 C-53 1062 -53 1062 -51.62007141 1060.10334778 C-49.49671195 1058.65723625 -47.86126475 1058.4971931 -45.3125 1058.3125 C-44.50425781 1058.24675781 -43.69601562 1058.18101563 -42.86328125 1058.11328125 C-42.24839844 1058.07589844 -41.63351562 1058.03851562 -41 1058 C-40.01 1059.65 -39.02 1061.3 -38 1063 C-36.79379199 1057.8937194 -36.64254284 1052.74867906 -36.39453125 1047.53125 C-36.10301492 1042.10301492 -36.10301492 1042.10301492 -35 1041 C-33.0437407 1040.90072714 -31.08377091 1040.87030271 -29.125 1040.875 C-28.05507813 1040.87242188 -26.98515625 1040.86984375 -25.8828125 1040.8671875 C-23 1041 -23 1041 -20 1042 C-20 1038.7 -20 1035.4 -20 1032 C-21.32 1032.33 -22.64 1032.66 -24 1033 C-28.54474769 1033.1086272 -33.08243502 1032.90518079 -37.625 1032.75 C-38.87796875 1032.72292969 -40.1309375 1032.69585938 -41.421875 1032.66796875 C-42.61554688 1032.62800781 -43.80921875 1032.58804687 -45.0390625 1032.546875 C-46.13428223 1032.51432617 -47.22950195 1032.48177734 -48.35791016 1032.44824219 C-49.2297998 1032.30032227 -50.10168945 1032.15240234 -51 1032 C-53.52775351 1028.20836973 -53.22443035 1025.19125969 -53.125 1020.8125 C-53.11597656 1020.06291016 -53.10695313 1019.31332031 -53.09765625 1018.54101562 C-53.07412578 1016.69387346 -53.03825561 1014.84689588 -53 1013 C-54.14339844 1013.01160156 -55.28679687 1013.02320313 -56.46484375 1013.03515625 C-57.95572754 1013.04453288 -59.44661309 1013.05363321 -60.9375 1013.0625 C-61.69224609 1013.07087891 -62.44699219 1013.07925781 -63.22460938 1013.08789062 C-65.14994313 1013.09652441 -67.07535581 1013.05224333 -69 1013 C-71.05922402 1010.94077598 -70.41427579 1006.78291876 -70.5625 1003.9375 C-70.60568359 1003.17888672 -70.64886719 1002.42027344 -70.69335938 1001.63867188 C-70.79973633 999.75934562 -70.90039934 997.87969756 -71 996 C-72.20398438 996.03480469 -73.40796875 996.06960938 -74.6484375 996.10546875 C-76.22394442 996.1336028 -77.79946638 996.16090337 -79.375 996.1875 C-80.56609375 996.22520508 -80.56609375 996.22520508 -81.78125 996.26367188 C-83.85586148 996.29004405 -85.93100865 996.15486462 -88 996 C-90.42130331 992.36804504 -90.21022785 990.61650652 -90.125 986.3125 C-90.10695313 985.13300781 -90.08890625 983.95351562 -90.0703125 982.73828125 C-90.04710937 981.83464844 -90.02390625 980.93101562 -90 980 C-90.73605469 980.01160156 -91.47210938 980.02320313 -92.23046875 980.03515625 C-93.69419922 980.04869141 -93.69419922 980.04869141 -95.1875 980.0625 C-96.15042969 980.07410156 -97.11335937 980.08570313 -98.10546875 980.09765625 C-101 980 -101 980 -106 979 C-106.33 973.72 -106.66 968.44 -107 963 C-111.84666111 963.07901826 -111.84666111 963.07901826 -116.69287109 963.18017578 C-118.46287275 963.1948117 -120.23272455 963.09928514 -122 963 C-124 961 -124 961 -124.1953125 957.0859375 C-124.18200376 955.51550649 -124.15813602 953.94513779 -124.125 952.375 C-124.11597656 951.57320312 -124.10695313 950.77140625 -124.09765625 949.9453125 C-124.07406223 947.96341477 -124.03819065 945.98167019 -124 944 C-124.72960937 944.15984375 -125.45921875 944.3196875 -126.2109375 944.484375 C-128.73453733 944.95092287 -131.06391781 945.19719418 -133.625 945.25 C-134.38039063 945.27578125 -135.13578125 945.3015625 -135.9140625 945.328125 C-138.59200051 944.90687632 -139.31015666 944.08400255 -141 942 C-141.35211081 939.08787047 -141.5572012 936.35526976 -141.625 933.4375 C-141.56034175 928.05410516 -141.56034175 928.05410516 -143 923 C-143.99 925.475 -143.99 925.475 -145 928 C-146.62580966 927.88601335 -148.25067157 927.75844341 -149.875 927.625 C-151.23238281 927.52058594 -151.23238281 927.52058594 -152.6171875 927.4140625 C-155 927 -155 927 -157 925 C-157.11925762 922.46359394 -157.14054182 920.03044704 -157.0625 917.5 C-156.73055 912.60700418 -156.73055 912.60700418 -158 908 C-158.07194869 905.11629667 -158.09291708 902.25760336 -158.0625 899.375 C-158.05798828 898.57320312 -158.05347656 897.77140625 -158.04882812 896.9453125 C-158.03703168 894.96350994 -158.01909605 892.98174567 -158 891 C-158.99 891.33 -159.98 891.66 -161 892 C-163.22818441 892.06937062 -165.45834524 892.08457084 -167.6875 892.0625 C-168.86699219 892.05347656 -170.04648437 892.04445313 -171.26171875 892.03515625 C-172.16535156 892.02355469 -173.06898438 892.01195312 -174 892 C-174.06058594 890.91203125 -174.12117188 889.8240625 -174.18359375 888.703125 C-174.62433988 880.93020781 -175.10552788 873.17201124 -175.81640625 865.41796875 C-175.97844276 863.28391348 -176 861.14019806 -176 859 C-177.63339047 862.26678094 -176.95949795 865.77668152 -176.83984375 869.37109375 C-177 872 -177 872 -179 875 C-181.2421875 875.36328125 -181.2421875 875.36328125 -183.875 875.3125 C-184.73867188 875.30863281 -185.60234375 875.30476563 -186.4921875 875.30078125 C-189.19996905 874.97601617 -190.73298209 874.50597065 -193 873 C-193.58959961 871.04345703 -193.58959961 871.04345703 -193.71484375 868.6328125 C-193.7701123 867.73723633 -193.82538086 866.84166016 -193.88232422 865.91894531 C-193.92115723 864.95569336 -193.95999023 863.99244141 -194 863 C-194.0530127 862.01870117 -194.10602539 861.03740234 -194.16064453 860.02636719 C-194.31721416 856.97644968 -194.44408466 853.92662145 -194.5625 850.875 C-194.60568359 849.823125 -194.64886719 848.77125 -194.69335938 847.6875 C-194.79818509 845.12509373 -194.90035355 842.56261201 -195 840 C-196.32 839.34 -197.64 838.68 -199 838 C-199 838.66 -199 839.32 -199 840 C-202.3 839.67 -205.6 839.34 -209 839 C-211.83124908 827.6750037 -211.11718456 815.60127167 -211 804 C-212.05960937 804.02320313 -213.11921875 804.04640625 -214.2109375 804.0703125 C-215.5989513 804.08906944 -216.9869727 804.10726972 -218.375 804.125 C-219.07367188 804.14175781 -219.77234375 804.15851562 -220.4921875 804.17578125 C-222.32897486 804.19344267 -224.16601963 804.10303261 -226 804 C-231.87815121 798.12184879 -229.05793655 780.25539799 -229.06591797 772.00610352 C-229.06431264 765.3373093 -229.03834948 758.6686802 -229 752 C-229.91241455 752.48786987 -229.91241455 752.48786987 -230.84326172 752.9855957 C-233.43257821 754.20345964 -235.27718385 754.23425519 -238.125 754.1875 C-238.99382812 754.18105469 -239.86265625 754.17460938 -240.7578125 754.16796875 C-243 754 -243 754 -245 753 C-245.66 729.9 -246.32 706.8 -247 683 C-247.99 683.33 -248.98 683.66 -250 684 C-251.49774018 684.09225211 -252.99942974 684.1300019 -254.5 684.125 C-255.2734375 684.12757813 -256.046875 684.13015625 -256.84375 684.1328125 C-259 684 -259 684 -262 683 C-262.33 653.96 -262.66 624.92 -263 595 C-263.99 595.33 -264.98 595.66 -266 596 C-268.03992808 596.09398043 -270.08291414 596.12992069 -272.125 596.125 C-273.20007813 596.12757813 -274.27515625 596.13015625 -275.3828125 596.1328125 C-278 596 -278 596 -279 595 C-279.10449926 592.31357008 -279.14332263 589.65261896 -279.14044189 586.96548462 C-279.14341302 586.11328445 -279.14638414 585.26108428 -279.1494453 584.38305986 C-279.1581717 581.50487523 -279.15964385 578.626732 -279.16113281 575.74853516 C-279.16575819 573.69416718 -279.17078246 571.63980006 -279.17617798 569.58543396 C-279.18933068 563.98836314 -279.19575247 558.39130432 -279.20018864 552.79422045 C-279.20311463 549.30144494 -279.20721851 545.80867274 -279.21169281 542.3158989 C-279.22537504 531.39957526 -279.23503825 520.48325917 -279.2388947 509.56692755 C-279.24337799 496.94372717 -279.26093542 484.32063493 -279.2898953 471.69746745 C-279.31147485 461.95480361 -279.32159698 452.21217028 -279.32293582 442.46948278 C-279.32398649 436.64380391 -279.32994973 430.8182266 -279.34775543 424.99257278 C-279.3641719 419.51463803 -279.36642302 414.03688186 -279.35761642 408.55893135 C-279.3568426 406.54448915 -279.36123386 404.53003759 -279.37107468 402.51561928 C-279.38369058 399.77302441 -279.37797423 397.03107203 -279.36749268 394.28848267 C-279.37554908 393.48469512 -279.38360548 392.68090757 -279.39190602 391.85276282 C-279.34378711 386.4975915 -279.34378711 386.4975915 -277.61838913 384.00028038 C-275.42043979 382.64179029 -273.87475761 382.7010975 -271.3125 382.8125 C-270.50425781 382.83957031 -269.69601562 382.86664062 -268.86328125 382.89453125 C-267.94095703 382.94673828 -267.94095703 382.94673828 -267 383 C-266.34 384.65 -265.68 386.3 -265 388 C-264.34 388 -263.68 388 -263 388 C-262.99191315 387.09211227 -262.98382629 386.18422455 -262.97549438 385.24882507 C-262.89760571 376.69955645 -262.81033243 368.15044654 -262.71247292 359.60138226 C-262.66249261 355.20604811 -262.61616279 350.81073821 -262.578125 346.4152832 C-262.54129401 342.17470344 -262.49494015 337.93432561 -262.44193649 333.69391823 C-262.42338088 332.07481231 -262.40827723 330.45566308 -262.39665604 328.83649254 C-262.37981335 326.57136662 -262.35078385 324.30670436 -262.31884766 322.04174805 C-262.30552399 320.75157272 -262.29220032 319.4613974 -262.2784729 318.13212585 C-262 315 -262 315 -260 312 C-257.72265625 311.6015625 -257.72265625 311.6015625 -255.0625 311.625 C-254.18722656 311.61726563 -253.31195313 311.60953125 -252.41015625 311.6015625 C-249.61559919 312.06354762 -248.74225055 312.82649931 -247 315 C-246.37865945 306.4598725 -245.97779102 297.93068585 -245.78125 289.37109375 C-245.76287582 288.61054687 -245.74450165 287.85 -245.72557068 287.06640625 C-245.65063057 283.94948714 -245.57603006 280.83274175 -245.52127075 277.71539307 C-245.4821472 275.48838298 -245.43143981 273.2618844 -245.37890625 271.03515625 C-245.34132202 269.07654663 -245.34132202 269.07654663 -245.30297852 267.07836914 C-245 264 -245 264 -243 262 C-240.72265625 261.734375 -240.72265625 261.734375 -238.0625 261.75 C-237.18722656 261.74484375 -236.31195313 261.7396875 -235.41015625 261.734375 C-233 262 -233 262 -230 264 C-229.9498877 262.95545654 -229.89977539 261.91091309 -229.84814453 260.8347168 C-229.65981101 256.95970513 -229.4594168 253.08539511 -229.25537109 249.21118164 C-229.16874312 247.53426526 -229.08538764 245.8571765 -229.00537109 244.17993164 C-228.8897913 241.76916552 -228.76245865 239.35926425 -228.6328125 236.94921875 C-228.59938751 236.19912033 -228.56596252 235.44902191 -228.53152466 234.67619324 C-228.32121631 230.9830544 -228.09735031 229.14602547 -226 226 C-223.7578125 225.70703125 -223.7578125 225.70703125 -221.125 225.8125 C-219.82949219 225.85310547 -219.82949219 225.85310547 -218.5078125 225.89453125 C-217.68023437 225.92933594 -216.85265625 225.96414063 -216 226 C-214.68 226 -213.36 226 -212 226 C-211.94465088 225.04109863 -211.88930176 224.08219727 -211.83227539 223.09423828 C-211.62607259 219.5418866 -211.41413089 215.98989671 -211.20043945 212.43798828 C-211.1086989 210.89966972 -211.01852202 209.36125709 -210.92993164 207.82275391 C-210.80243814 205.61334145 -210.66935369 203.40432662 -210.53515625 201.1953125 C-210.49656998 200.50567413 -210.4579837 199.81603577 -210.41822815 199.10549927 C-210.11387171 194.22774341 -210.11387171 194.22774341 -209 192 C-206.85546875 191.5859375 -206.85546875 191.5859375 -204.1875 191.375 C-202.87845703 191.26285156 -202.87845703 191.26285156 -201.54296875 191.1484375 C-199.36512507 191.02131298 -197.18155077 191 -195 191 C-194.93941406 190.01257813 -194.87882812 189.02515625 -194.81640625 188.0078125 C-194.73261719 186.72648438 -194.64882813 185.44515625 -194.5625 184.125 C-194.48128906 182.84882813 -194.40007812 181.57265625 -194.31640625 180.2578125 C-194 177 -194 177 -193 175 C-187.06 175 -181.12 175 -175 175 C-174.67 164.11 -174.34 153.22 -174 142 C-171.52621876 140.76310938 -169.82084683 140.86689913 -167.0625 140.875 C-166.18722656 140.87242187 -165.31195313 140.86984375 -164.41015625 140.8671875 C-162 141 -162 141 -159 142 C-158.16722374 138.77299199 -157.95578211 135.81081456 -158 132.5 C-158.03300781 129.19921876 -157.99464966 126.1828789 -157 123 C-154.52621876 121.76310938 -152.82084683 121.86689913 -150.0625 121.875 C-149.18722656 121.87242187 -148.31195313 121.86984375 -147.41015625 121.8671875 C-145 122 -145 122 -142 123 C-141.93941406 121.79601562 -141.87882813 120.59203125 -141.81640625 119.3515625 C-141.73200268 117.77602923 -141.64735459 116.20050904 -141.5625 114.625 C-141.52318359 113.8309375 -141.48386719 113.036875 -141.44335938 112.21875 C-141.11328125 106.2265625 -141.11328125 106.2265625 -140 104 C-135.05 104 -130.1 104 -125 104 C-124.814375 100.6278125 -124.814375 100.6278125 -124.625 97.1875 C-124.25 90.375 -124.25 90.375 -122 87 C-119.2114711 86.77892213 -116.65346819 86.71892465 -113.875 86.8125 C-112.74384766 86.83280273 -112.74384766 86.83280273 -111.58984375 86.85351562 C-109.72625873 86.88890015 -107.86304022 86.94270833 -106 87 C-106 82.05 -106 77.1 -106 72 C-100.40355596 69.76142238 -95.93329509 69.59059316 -89.984375 69.34375 C-88.50710938 69.17359375 -88.50710938 69.17359375 -87 69 C-86.67 68.34 -86.34 67.68 -86 67 C-86.99 67 -87.98 67 -89 67 C-89.02708567 65.39592672 -89.04643483 63.7917215 -89.0625 62.1875 C-89.07410156 61.29417969 -89.08570313 60.40085937 -89.09765625 59.48046875 C-89 57 -89 57 -88 54 C-76.45 54 -64.9 54 -53 54 C-53 48.39 -53 42.78 -53 37 C-47.39 37 -41.78 37 -36 37 C-36.07904591 31.49516329 -36.07904591 31.49516329 -36.18017578 25.99072266 C-36.19473738 23.99296522 -36.09956726 21.99532783 -36 20 C-33.22642574 17.22642574 -30.53178795 17.54783042 -26.8046875 17.3671875 C-26.09724396 17.32562531 -25.38980042 17.28406311 -24.66091919 17.24124146 C-22.39934382 17.11039568 -20.13730147 16.99255331 -17.875 16.875 C-16.34239949 16.7886153 -14.80984633 16.70138623 -13.27734375 16.61328125 C-9.51870858 16.39904938 -5.75960338 16.19647734 -2 16 C-2.02320313 15.18015625 -2.04640625 14.3603125 -2.0703125 13.515625 C-2.08835937 12.43796875 -2.10640625 11.3603125 -2.125 10.25 C-2.14820313 9.18265625 -2.17140625 8.1153125 -2.1953125 7.015625 C-2.00106409 4.01642952 -1.40654523 2.57947742 0 0 Z M-72 66 C-72.99 67.485 -72.99 67.485 -74 69 C-72.68 69 -71.36 69 -70 69 C-70.33 68.01 -70.66 67.02 -71 66 C-71.33 66 -71.66 66 -72 66 Z M7 130 C7 130.99 7 131.98 7 133 C7.99 132.67 8.98 132.34 10 132 C10 131.34 10 130.68 10 130 C9.01 130 8.02 130 7 130 Z M-160 154 C-160.33 154.99 -160.66 155.98 -161 157 C-160.01 157 -159.02 157 -158 157 C-158.33 156.01 -158.66 155.02 -159 154 C-159.33 154 -159.66 154 -160 154 Z M-98 234 C-97.67 235.32 -97.34 236.64 -97 238 C-96.01 237.01 -95.02 236.02 -94 235 C-95.32 234.67 -96.64 234.34 -98 234 Z M-265 396 C-264.67 396.99 -264.34 397.98 -264 399 C-264 398.01 -264 397.02 -264 396 C-264.33 396 -264.66 396 -265 396 Z M-28 901 C-26.02 901.99 -26.02 901.99 -24 903 C-23.67 902.34 -23.34 901.68 -23 901 C-24.65 901 -26.3 901 -28 901 Z M199 901 C199 901.66 199 902.32 199 903 C199.99 903 200.98 903 202 903 C202 902.34 202 901.68 202 901 C201.01 901 200.02 901 199 901 Z M-144 909 C-144 910.32 -144 911.64 -144 913 C-143.01 912.67 -142.02 912.34 -141 912 C-141.33 911.01 -141.66 910.02 -142 909 C-142.66 909 -143.32 909 -144 909 Z M-9 917 C-9 917.99 -9 918.98 -9 920 C-8.34 919.34 -7.68 918.68 -7 918 C-7.66 917.67 -8.32 917.34 -9 917 Z M250 966 C250 967.65 250 969.3 250 971 C250.33 971 250.66 971 251 971 C251 969.35 251 967.7 251 966 C250.67 966 250.34 966 250 966 Z M304 1038 C304 1038.66 304 1039.32 304 1040 C304.66 1040 305.32 1040 306 1040 C306 1039.34 306 1038.68 306 1038 C305.34 1038 304.68 1038 304 1038 Z " fill="#000000" transform="translate(498,273)"/>
</svg>
